<svg id="star_border-black-24dp" xmlns="http://www.w3.org/2000/svg" width="22" height="22"  viewBox="0 0 22 22">
  <path id="Caminho_4399" data-name="Caminho 4399" d="M0,0H24V24H0Z" fill="none"/>
  <path id="Caminho_4400" data-name="Caminho 4400" d="M19.65,9.04l-4.84-.42L12.92,4.17a1,1,0,0,0-1.84,0L9.19,8.63l-4.83.41a1,1,0,0,0-.57,1.75l3.67,3.18-1.1,4.72a1,1,0,0,0,1.49,1.08L12,17.27l4.15,2.51a1,1,0,0,0,1.49-1.08l-1.1-4.73,3.67-3.18a1,1,0,0,0-.56-1.75ZM12,15.4,8.24,17.67l1-4.28L5.92,10.51l4.38-.38L12,6.1l1.71,4.04,4.38.38L14.77,13.4l1,4.28Z" />
</svg>
