<svg xmlns="http://www.w3.org/2000/svg" width="23.994" height="23.994" viewBox="0 0 23.994 23.994">
  <path id="União_228" data-name="União 228" d="M-75,2713a12.008,12.008,0,0,1,12-12,12.028,12.028,0,0,1,12,12,12.028,12.028,0,0,1-12,12A12.008,12.008,0,0,1-75,2713Zm1.9,0A10.118,10.118,0,0,0-63,2723.09,10.1,10.1,0,0,0-52.91,2713,10.119,10.119,0,0,0-63,2702.9,10.119,10.119,0,0,0-73.1,2713Zm8.57,6.119-5.026-5.264a2.07,2.07,0,0,1,.005-2.872l2.364-2.456a2.081,2.081,0,0,1,1.495-.636h5.325a2.082,2.082,0,0,1,1.495.636l2.364,2.456a2.071,2.071,0,0,1,.005,2.872l-5.027,5.264a2.083,2.083,0,0,1-1.5.643A2.083,2.083,0,0,1-64.526,2719.116Zm1.229-1.174a.374.374,0,0,0,.272.117.375.375,0,0,0,.273-.117l4.508-4.722h-9.562Zm-2.661-8.24-1.751,1.82h9.37l-1.751-1.82a.378.378,0,0,0-.271-.115h-5.325A.378.378,0,0,0-65.958,2709.7Z" transform="translate(75 -2701)" fill="#707b81"/>
</svg>
