<svg width="18" height="18" xmlns="http://www.w3.org/2000/svg" xmlns:xlink="http://www.w3.org/1999/xlink" xmlns:svgjs="http://svgjs.com/svgjs" viewBox="45 78 18 18"><svg width="18" height="18" xmlns="http://www.w3.org/2000/svg" xmlns:xlink="http://www.w3.org/1999/xlink" xmlns:svgjs="http://svgjs.com/svgjs" fill="none" x="45" y="78"><svg xmlns="http://www.w3.org/2000/svg" xmlns:xlink="http://www.w3.org/1999/xlink" width="18" height="18"><path paint-order="stroke fill markers" d="M18 18H0V0h18v18z"/></svg></svg><svg width="9" height="9" xmlns="http://www.w3.org/2000/svg" xmlns:xlink="http://www.w3.org/1999/xlink" xmlns:svgjs="http://svgjs.com/svgjs" viewBox="0 0.069 9 8.861" fill="#aed335" x="49" y="82"><svg xmlns="http://www.w3.org/2000/svg" width="9" height="9" viewBox="0.555 0.684 8.382 8.253"><path paint-order="stroke fill markers" fill-rule="evenodd" d="M.703 5.091a.506.506 0 0 0 .716 0L4.24 2.27v6.161a.506.506 0 1 0 1.013 0v-6.16l2.82 2.82a.506.506 0 1 0 .716-.716L5.347.933a.847.847 0 0 0-1.201 0L.703 4.375a.506.506 0 0 0 0 .716z"/></svg></svg></svg>