<svg xmlns="http://www.w3.org/2000/svg" width="53.738" height="53.637" viewBox="0 0 53.738 53.637">
  <g id="Grupo_15010" data-name="Grupo 15010" transform="translate(-569.252 -569.857)">
    <path id="Caminho_4217" data-name="Caminho 4217" d="M615.205,604.187v.09a2.172,2.172,0,0,0,1.78,2.116,9.323,9.323,0,1,1-10.979,10.925,2.169,2.169,0,0,0-2.114-1.787H603.8a2.151,2.151,0,0,0-2.116,2.544,13.722,13.722,0,0,0,14.446,11.136,14.306,14.306,0,0,0,12.7-12.687,13.713,13.713,0,0,0-11.077-14.451A2.15,2.15,0,0,0,615.205,604.187Z" transform="translate(-19.037 -18.91)" fill="#ffa252"/>
    <path id="Caminho_4218" data-name="Caminho 4218" d="M615.433,588.046v.09a2.163,2.163,0,0,0,1.922,2.135,15.9,15.9,0,1,1-11.73,28.334,2.236,2.236,0,0,0-2.725-.057,2.2,2.2,0,0,0-.023,3.478,20.29,20.29,0,1,0,14.98-36.113A2.155,2.155,0,0,0,615.433,588.046Z" transform="translate(-19.265 -9.426)" fill="#854ad6"/>
    <path id="Caminho_4219" data-name="Caminho 4219" d="M598.551,569.866a2.194,2.194,0,0,0-2.383,2.189h0a2.189,2.189,0,0,0,1.993,2.181c14.212,1.278,24.612,15.78,18.8,31.109a20.94,20.94,0,0,1-12.125,12.122c-16.052,6.083-31.2-5.61-31.2-20.841a22.393,22.393,0,0,1,5.22-14.405c.018-.022.031-.046.047-.069a2.161,2.161,0,0,0,.428-1.8,2.206,2.206,0,0,0-1.761-1.708,2.177,2.177,0,0,0-2.1.8l-.008,0a27.14,27.14,0,0,0-4.786,26.09c2.2,6.816,9.623,14.278,16.431,16.5,18.652,6.085,35.876-7.648,35.876-25.4A26.871,26.871,0,0,0,598.551,569.866Z" transform="translate(0)" fill="#0dcee6"/>
  </g>
</svg>
