<svg id="Load" xmlns="http://www.w3.org/2000/svg" width="40.999" height="41" viewBox="0 0 40.999 41">
  <path id="Subtração_1" data-name="Subtração 1" d="M1223.5-6665a20.372,20.372,0,0,1-7.979-1.611A20.428,20.428,0,0,1,1209-6671a20.423,20.423,0,0,1-4.393-6.516A20.377,20.377,0,0,1,1203-6685.5a20.373,20.373,0,0,1,1.611-7.979A20.427,20.427,0,0,1,1209-6700a20.428,20.428,0,0,1,6.516-4.394A20.372,20.372,0,0,1,1223.5-6706a20.376,20.376,0,0,1,7.98,1.611A20.434,20.434,0,0,1,1238-6700a20.421,20.421,0,0,1,4.393,6.516A20.373,20.373,0,0,1,1244-6685.5c0,.5-.018,1-.054,1.5h-5.017c.047-.492.071-1,.071-1.5a15.4,15.4,0,0,0-4.539-10.96A15.4,15.4,0,0,0,1223.5-6701a15.4,15.4,0,0,0-10.96,4.541A15.4,15.4,0,0,0,1208-6685.5a15.4,15.4,0,0,0,4.539,10.959A15.4,15.4,0,0,0,1223.5-6670a15.757,15.757,0,0,0,2.5-.2v5.048A20.783,20.783,0,0,1,1223.5-6665Z" transform="translate(-1203 6706)" fill="#6f4dbf"/>
</svg>
