<svg xmlns="http://www.w3.org/2000/svg" width="24" height="24" viewBox="0 0 24 24">
  <g id="Grupo_14492" data-name="Grupo 14492" transform="translate(-20 -39.999)">
    <path id="borda" d="M72.012,137.309a12,12,0,1,1-3.512-8.48A12,12,0,0,1,72.012,137.309Z" transform="translate(-28.012 -85.313)" fill="#6f4dbf"/>
    <path id="shape" d="M3.625,3.94h0a.727.727,0,0,1-.519-.215L.128.747A.438.438,0,0,1,.747.128L3.625,3.005,6.5.128a.438.438,0,0,1,.619.619L4.144,3.725A.729.729,0,0,1,3.625,3.94Z" transform="translate(32.94 48.666) rotate(90)" fill="#fff"/>
  </g>
</svg>
