<svg xmlns="http://www.w3.org/2000/svg" width="29.321" height="29.438" viewBox="0 0 29.321 29.438">
  <g id="icon_acoes" data-name="icon acoes" transform="translate(0.5 0.5)">
    <path id="icon_acoes-2" data-name="icon acoes" d="M1166.63-6924.855a1.1,1.1,0,0,1-.161-1.542,1.1,1.1,0,0,1,1.544-.16,11.825,11.825,0,0,0,7.523,2.664,11.977,11.977,0,0,0,11.969-11.453,1.058,1.058,0,0,1,1.148-1.046,1.1,1.1,0,0,1,1.047,1.147,14.175,14.175,0,0,1-14.163,13.55A14.171,14.171,0,0,1,1166.63-6924.855Zm-4-4.854a1.1,1.1,0,0,1,.169-1.542l9.241-7.444a1.1,1.1,0,0,1,1.521.143l3.909,4.558,9.691-8.277a1.1,1.1,0,0,1,1.549.126,1.1,1.1,0,0,1-.122,1.545l-10.525,8.986a1.1,1.1,0,0,1-1.547-.121l-3.928-4.584-8.414,6.778a1.093,1.093,0,0,1-.687.243A1.093,1.093,0,0,1,1162.634-6929.709Zm-.218-5.891a1.1,1.1,0,0,1-1.033-1.16,14.2,14.2,0,0,1,14.153-13.375,14.009,14.009,0,0,1,8.774,3.051,1.1,1.1,0,0,1,.181,1.54,1.1,1.1,0,0,1-1.542.181,11.847,11.847,0,0,0-7.413-2.574,12,12,0,0,0-11.962,11.3,1.1,1.1,0,0,1-1.094,1.035Z" transform="translate(-1161.381 6950.135)" fill="#6f4dbf" stroke="rgba(0,0,0,0)" stroke-width="1"/>
  </g>
</svg>
