<svg xmlns="http://www.w3.org/2000/svg" width="82.516" height="24" viewBox="0 0 82.516 24">
  <g id="Grupo_17957" data-name="Grupo 17957" transform="translate(-60.516 -37.374)">
    <g id="Grupo_17955" data-name="Grupo 17955" transform="translate(60.516 37.374)">
      <path id="Caminho_5799" data-name="Caminho 5799" d="M355.923,116.755a2.157,2.157,0,0,0-2.894.964l-4.543,9.085-4.542-9.085a2.157,2.157,0,0,0-3.859,1.93l6.471,12.944a2.157,2.157,0,0,0,3.859,0l6.472-12.944a2.157,2.157,0,0,0-.964-2.894" transform="translate(-293.476 -110.055)" fill="#627179"/>
      <path id="Caminho_5800" data-name="Caminho 5800" d="M301.033,115.894a2.158,2.158,0,0,0-3.051,0l-9.261,9.261V110.947a2.157,2.157,0,1,0-4.314,0v19.415a2.157,2.157,0,0,0,3.683,1.526l4.947-4.946,4.946,4.946a2.157,2.157,0,1,0,3.051-3.05l-4.947-4.947,4.947-4.946a2.158,2.158,0,0,0,0-3.051" transform="translate(-284.406 -108.79)" fill="#627179"/>
      <path id="Caminho_5801" data-name="Caminho 5801" d="M311.065,116.528a2.157,2.157,0,0,0-2.157,2.157v12.944a2.157,2.157,0,0,0,4.314,0V118.685a2.157,2.157,0,0,0-2.157-2.157" transform="translate(-288.414 -110.056)" fill="#627179"/>
      <path id="Caminho_5802" data-name="Caminho 5802" d="M327.1,116.205a6.679,6.679,0,0,0-4.88,2.109,2.156,2.156,0,0,0-4.288.318v12.944a2.157,2.157,0,0,0,4.314,0v-6.742a4.314,4.314,0,1,1,8.629,0v6.742a2.158,2.158,0,0,0,4.315,0v-6.742c0-4.759-3.332-8.63-8.09-8.63" transform="translate(-289.89 -110.003)" fill="#627179"/>
      <path id="Caminho_5803" data-name="Caminho 5803" d="M311.065,108.79a2.158,2.158,0,1,0,2.157,2.158,2.157,2.157,0,0,0-2.157-2.158" transform="translate(-288.414 -108.79)" fill="#627179"/>
      <path id="Caminho_5804" data-name="Caminho 5804" d="M370.678,129.688a4.584,4.584,0,1,1,4.585-4.585,4.589,4.589,0,0,1-4.585,4.585m0-13.483a8.9,8.9,0,1,0,8.9,8.9,8.909,8.909,0,0,0-8.9-8.9" transform="translate(-297.061 -110.003)" fill="#627179"/>
    </g>
  </g>
</svg>
