<svg id="star-black-24dp" xmlns="http://www.w3.org/2000/svg" width="24" height="24" viewBox="0 0 24 24">
  <g id="Grupo_14438" data-name="Grupo 14438">
    <path id="Caminho_4396" data-name="Caminho 4396" d="M0,0H24V24H0Z" fill="none"/>
    <path id="Caminho_4397" data-name="Caminho 4397" d="M0,0H24V24H0Z" fill="none"/>
  </g>
  <g id="Grupo_14439" data-name="Grupo 14439">
    <path id="Caminho_4398" data-name="Caminho 4398" d="M12,17.27l4.15,2.51a1,1,0,0,0,1.49-1.08l-1.1-4.72,3.67-3.18a1,1,0,0,0-.57-1.75l-4.83-.41L12.92,4.18a1,1,0,0,0-1.84,0L9.19,8.63l-4.83.41a1,1,0,0,0-.57,1.75l3.67,3.18-1.1,4.72a1,1,0,0,0,1.49,1.08Z" fill="#f8c22e"/>
  </g>
</svg>
