    <svg
      xmlns="http://www.w3.org/2000/svg"
      width="29.321"
      height="29.438"
      viewBox="0 0 29.321 29.438"
    >
      <g data-name="icon acoes" transform="translate(.5 .5)">
        <path
          fill="#6f4dbf"
          stroke="rgba(0,0,0,0)"
          strokeWidth="1"
          d="M5.249 25.28a1.1 1.1 0 01-.161-1.542 1.1 1.1 0 011.544-.16 11.825 11.825 0 007.523 2.664 11.977 11.977 0 0011.969-11.453 1.058 1.058 0 011.148-1.046 1.1 1.1 0 011.047 1.147 14.175 14.175 0 01-14.163 13.55 14.171 14.171 0 01-8.907-3.16zm-4-4.854a1.1 1.1 0 01.169-1.542l9.241-7.444a1.1 1.1 0 011.521.143l3.909 4.558 9.691-8.277a1.1 1.1 0 011.549.126 1.1 1.1 0 01-.122 1.545l-10.525 8.986a1.1 1.1 0 01-1.547-.121l-3.928-4.584-8.414 6.778a1.093 1.093 0 01-.687.243 1.093 1.093 0 01-.853-.411zm-.218-5.891a1.1 1.1 0 01-1.033-1.16A14.2 14.2 0 0114.151 0a14.009 14.009 0 018.774 3.051 1.1 1.1 0 01.181 1.54 1.1 1.1 0 01-1.542.181 11.847 11.847 0 00-7.413-2.574 12 12 0 00-11.962 11.3 1.1 1.1 0 01-1.094 1.035z"
          data-name="icon acoes"
        ></path>
      </g>
    </svg>