<svg xmlns="http://www.w3.org/2000/svg" width="23.7" height="23.701" viewBox="0 0 23.7 23.701">
  <g id="Grupo_4104" data-name="Grupo 4104" transform="translate(3769.85 7576.911)">
    <path id="Caminho_3298" data-name="Caminho 3298" d="M27.7,43.4a11.008,11.008,0,1,1-3.224-7.776A10.966,10.966,0,0,1,27.7,43.4Z" transform="translate(-3774.7 -7608.46)" fill="none" stroke="#707b81" stroke-linecap="round" stroke-linejoin="round" stroke-miterlimit="10" stroke-width="1.7"/>
    <path id="Caminho_3299" data-name="Caminho 3299" d="M24.291,43.6a7.374,7.374,0,0,1,5.279,2.181,7.563,7.563,0,0,1,2.181,5.279,7.375,7.375,0,0,1-2.181,5.279,7.591,7.591,0,0,1-5.279,2.213,7.447,7.447,0,0,1-7.491-7.46" transform="translate(-3782.292 -7616.12)" fill="none" stroke="#707b81" stroke-linecap="round" stroke-linejoin="round" stroke-miterlimit="10" stroke-width="1.7"/>
    <path id="Caminho_3300" data-name="Caminho 3300" d="M40.5,55.1a3.856,3.856,0,0,1,0,7.713" transform="translate(-3798.5 -7623.985)" fill="none" stroke="#707b81" stroke-linecap="round" stroke-linejoin="round" stroke-miterlimit="10" stroke-width="1.7"/>
  </g>
</svg>
