<svg xmlns="http://www.w3.org/2000/svg" width="56" height="56" viewBox="0 0 56 56">
  <g id="Grupo_14502" data-name="Grupo 14502" transform="translate(-40 -292)">
    <circle id="Elipse_912" data-name="Elipse 912" cx="28" cy="28" r="28" transform="translate(40 292)" fill="#ecf0f2"/>
    <path id="shape" d="M250.594,284.552h-.247v-2.563a3.849,3.849,0,0,0-1.684-3.223,3.44,3.44,0,0,0-3.277-.328l-14.635,6.069a.928.928,0,0,0-.1.069,1.085,1.085,0,0,0-.979,1.074v17.529a1.1,1.1,0,0,0,1.1,1.1h19.827a5.033,5.033,0,0,0,5.027-5.026v-9.672A5.033,5.033,0,0,0,250.594,284.552Zm-4.367-4.086a1.267,1.267,0,0,1,1.216.126,1.658,1.658,0,0,1,.708,1.4v2.563H236.375Zm7.2,18.785a2.834,2.834,0,0,1-2.831,2.83H231.865V286.748h18.729a2.834,2.834,0,0,1,2.831,2.831Zm-4.309-6.03h-3.058a1.1,1.1,0,1,0,0,2.2h3.058a1.1,1.1,0,1,0,0-2.2Z" transform="translate(-174.669 28.833)" fill="#6f4dbf"/>
  </g>
</svg>
