<svg xmlns="http://www.w3.org/2000/svg" width="120" height="24" viewBox="0 0 120 24">
  <g id="Grupo_14451" data-name="Grupo 14451" transform="translate(35 22155)" opacity="0.5">
    <g id="star-black-24dp" transform="translate(13 -22155)">
      <g id="Grupo_14438" data-name="Grupo 14438">
        <path id="Caminho_4396" data-name="Caminho 4396" d="M0,0H24V24H0Z" fill="none"/>
        <path id="Caminho_4397" data-name="Caminho 4397" d="M0,0H24V24H0Z" fill="none"/>
      </g>
      <g id="Grupo_14439" data-name="Grupo 14439">
        <path id="Caminho_4398" data-name="Caminho 4398" d="M12,17.27l4.15,2.51a1,1,0,0,0,1.49-1.08l-1.1-4.72,3.67-3.18a1,1,0,0,0-.57-1.75l-4.83-.41L12.92,4.18a1,1,0,0,0-1.84,0L9.19,8.63l-4.83.41a1,1,0,0,0-.57,1.75l3.67,3.18-1.1,4.72a1,1,0,0,0,1.49,1.08Z" fill="#627179"/>
      </g>
    </g>
    <g id="star-black-24dp-2" data-name="star-black-24dp" transform="translate(-35 -22155)">
      <g id="Grupo_14438-2" data-name="Grupo 14438">
        <path id="Caminho_4396-2" data-name="Caminho 4396" d="M0,0H24V24H0Z" fill="none"/>
        <path id="Caminho_4397-2" data-name="Caminho 4397" d="M0,0H24V24H0Z" fill="none"/>
      </g>
      <g id="Grupo_14439-2" data-name="Grupo 14439">
        <path id="Caminho_4398-2" data-name="Caminho 4398" d="M12,17.27l4.15,2.51a1,1,0,0,0,1.49-1.08l-1.1-4.72,3.67-3.18a1,1,0,0,0-.57-1.75l-4.83-.41L12.92,4.18a1,1,0,0,0-1.84,0L9.19,8.63l-4.83.41a1,1,0,0,0-.57,1.75l3.67,3.18-1.1,4.72a1,1,0,0,0,1.49,1.08Z" fill="#627179"/>
      </g>
    </g>
    <g id="star-black-24dp-3" data-name="star-black-24dp" transform="translate(-11 -22155)">
      <g id="Grupo_14438-3" data-name="Grupo 14438">
        <path id="Caminho_4396-3" data-name="Caminho 4396" d="M0,0H24V24H0Z" fill="none"/>
        <path id="Caminho_4397-3" data-name="Caminho 4397" d="M0,0H24V24H0Z" fill="none"/>
      </g>
      <g id="Grupo_14439-3" data-name="Grupo 14439">
        <path id="Caminho_4398-3" data-name="Caminho 4398" d="M12,17.27l4.15,2.51a1,1,0,0,0,1.49-1.08l-1.1-4.72,3.67-3.18a1,1,0,0,0-.57-1.75l-4.83-.41L12.92,4.18a1,1,0,0,0-1.84,0L9.19,8.63l-4.83.41a1,1,0,0,0-.57,1.75l3.67,3.18-1.1,4.72a1,1,0,0,0,1.49,1.08Z" fill="#627179"/>
      </g>
    </g>
    <g id="star-black-24dp-4" data-name="star-black-24dp" transform="translate(37 -22155)">
      <g id="Grupo_14438-4" data-name="Grupo 14438">
        <path id="Caminho_4396-4" data-name="Caminho 4396" d="M0,0H24V24H0Z" fill="none"/>
        <path id="Caminho_4397-4" data-name="Caminho 4397" d="M0,0H24V24H0Z" fill="none"/>
      </g>
      <g id="Grupo_14439-4" data-name="Grupo 14439">
        <path id="Caminho_4398-4" data-name="Caminho 4398" d="M12,17.27l4.15,2.51a1,1,0,0,0,1.49-1.08l-1.1-4.72,3.67-3.18a1,1,0,0,0-.57-1.75l-4.83-.41L12.92,4.18a1,1,0,0,0-1.84,0L9.19,8.63l-4.83.41a1,1,0,0,0-.57,1.75l3.67,3.18-1.1,4.72a1,1,0,0,0,1.49,1.08Z" fill="#627179"/>
      </g>
    </g>
    <g id="star_border-black-24dp" transform="translate(61 -22155)">
      <path id="Caminho_4399" data-name="Caminho 4399" d="M0,0H24V24H0Z" fill="none"/>
      <path id="Caminho_4400" data-name="Caminho 4400" d="M19.65,9.04l-4.84-.42L12.92,4.17a1,1,0,0,0-1.84,0L9.19,8.63l-4.83.41a1,1,0,0,0-.57,1.75l3.67,3.18-1.1,4.72a1,1,0,0,0,1.49,1.08L12,17.27l4.15,2.51a1,1,0,0,0,1.49-1.08l-1.1-4.73,3.67-3.18a1,1,0,0,0-.56-1.75ZM12,15.4,8.24,17.67l1-4.28L5.92,10.51l4.38-.38L12,6.1l1.71,4.04,4.38.38L14.77,13.4l1,4.28Z" fill="#627179"/>
    </g>
  </g>
</svg>
