<svg width="56" height="56" xmlns="http://www.w3.org/2000/svg" xmlns:xlink="http://www.w3.org/1999/xlink" xmlns:svgjs="http://svgjs.com/svgjs" viewBox="40 152 56 56"><svg width="56" height="56" xmlns="http://www.w3.org/2000/svg" xmlns:xlink="http://www.w3.org/1999/xlink" xmlns:svgjs="http://svgjs.com/svgjs" fill="#ecf0f2" x="40" y="152"><svg xmlns="http://www.w3.org/2000/svg" xmlns:xlink="http://www.w3.org/1999/xlink" width="56" height="56"><path paint-order="stroke fill markers" fill-rule="evenodd" d="M28 56C12.516 56 0 43.484 0 28S12.516 0 28 0s28 12.516 28 28-12.516 28-28 28z"/></svg></svg><svg width="25" height="16" xmlns="http://www.w3.org/2000/svg" xmlns:xlink="http://www.w3.org/1999/xlink" xmlns:svgjs="http://svgjs.com/svgjs" viewBox="0 0.172 25 15.657" fill="#6f4dbf" x="58" y="179"><svg xmlns="http://www.w3.org/2000/svg" xmlns:xlink="http://www.w3.org/1999/xlink" width="25" height="16" viewBox="0.843 0.736 23.476 14.702"><path paint-order="stroke fill markers" fill-rule="evenodd" d="M10.155 15.438c-3.233 0-6.397-1.12-8.905-3.158a1.095 1.095 0 0 1-.161-1.543 1.094 1.094 0 0 1 1.543-.16 11.823 11.823 0 0 0 7.523 2.663c6.413 0 11.671-5.028 11.97-11.453.026-.605.513-1.11 1.146-1.046a1.1 1.1 0 0 1 1.047 1.147c-.354 7.597-6.573 13.55-14.163 13.55z"/></svg></svg><svg width="27" height="14" xmlns="http://www.w3.org/2000/svg" xmlns:xlink="http://www.w3.org/1999/xlink" xmlns:svgjs="http://svgjs.com/svgjs" viewBox="0 0.28 27 13.44" fill="#6f4dbf" x="55" y="173"><svg xmlns="http://www.w3.org/2000/svg" xmlns:xlink="http://www.w3.org/1999/xlink" width="27" height="14" viewBox="0.011 0.603 26.585 13.233"><path paint-order="stroke fill markers" fill-rule="evenodd" d="M1.109 13.836a1.095 1.095 0 0 1-.687-1.953l9.241-7.445a1.097 1.097 0 0 1 1.52.143l3.91 4.559L24.784.864a1.102 1.102 0 0 1 1.549.124c.393.46.34 1.153-.123 1.546L15.685 11.52a1.099 1.099 0 0 1-1.546-.12l-3.928-4.584-8.415 6.778c-.2.162-.444.242-.687.242z"/></svg></svg><svg width="24" height="15" xmlns="http://www.w3.org/2000/svg" xmlns:xlink="http://www.w3.org/1999/xlink" xmlns:svgjs="http://svgjs.com/svgjs" viewBox="0 0.028 24 14.943" fill="#6f4dbf" x="54" y="166"><svg xmlns="http://www.w3.org/2000/svg" width="24" height="15" viewBox="0 0 23.346 14.536"><path paint-order="stroke fill markers" fill-rule="evenodd" d="M1.1 14.536l-.065-.002a1.095 1.095 0 0 1-1.033-1.158C.441 5.874 6.657 0 14.154 0c3.217 0 6.253 1.056 8.775 3.05.475.377.557 1.066.18 1.541a1.102 1.102 0 0 1-1.542.182 11.836 11.836 0 0 0-7.413-2.576c-6.336 0-11.59 4.966-11.96 11.304A1.1 1.1 0 0 1 1.1 14.536z"/></svg></svg></svg>