<svg xmlns="http://www.w3.org/2000/svg" width="24" height="24" viewBox="0 0 24 24"><defs><style>.a{fill:#6f4dbf;}.b{fill:#fff;}</style></defs><g transform="translate(-20 -40)"><path class="a" d="M72.012,137.309a12,12,0,1,1-3.512-8.48A12,12,0,0,1,72.012,137.309Z" transform="translate(-28.012 -85.312)"/><path class="b" d="M3.625,3.94h0a.727.727,0,0,1-.519-.215L.128.747A.438.438,0,0,1,.747.128L3.625,3.005,6.5.128a.438.438,0,0,1,.619.619L4.144,3.725A.729.729,0,0,1,3.625,3.94Z" transform="translate(33.94 48) rotate(90)"/></g></svg>