    <svg
      xmlns="http://www.w3.org/2000/svg"
      width="25.952"
      height="26.109"
      data-name="icon fundos"
      viewBox="0 0 25.952 26.109"
    >
      <path
        fill="#6f4dbf"
        d="M250.594 284.552h-.247v-2.563a3.849 3.849 0 00-1.684-3.223 3.44 3.44 0 00-3.277-.328l-14.635 6.069a.928.928 0 00-.1.069 1.085 1.085 0 00-.979 1.074v17.529a1.1 1.1 0 001.1 1.1h19.827a5.033 5.033 0 005.027-5.026v-9.672a5.033 5.033 0 00-5.032-5.029zm-4.367-4.086a1.267 1.267 0 011.216.126 1.658 1.658 0 01.708 1.4v2.563h-11.776zm7.2 18.785a2.834 2.834 0 01-2.831 2.83h-18.731v-15.333h18.729a2.834 2.834 0 012.831 2.831zm-4.309-6.03h-3.058a1.1 1.1 0 100 2.2h3.058a1.1 1.1 0 100-2.2z"
        data-name="icon fundos"
        transform="translate(-229.669 -278.167)"
      ></path>
    </svg>