<svg xmlns="http://www.w3.org/2000/svg" width="45" height="48" viewBox="0 0 45 48"><defs><style>.a{fill:none;}.b{fill:#e4e4e4;}.c,.d{stroke:none;}.d{fill:#6f4dbf;}</style></defs><g transform="translate(-1063 21236)"><g class="a" transform="translate(1063 -21236)"><path class="c" d="M20.5,0A20.5,20.5,0,1,1,0,20.5,20.5,20.5,0,0,1,20.5,0Z"/><path class="d" d="M 20.5 5 C 16.35980033874512 5 12.46740913391113 6.612281799316406 9.539840698242188 9.539840698242188 C 6.612281799316406 12.46740913391113 5 16.35980033874512 5 20.5 C 5 24.64019966125488 6.612281799316406 28.53258895874023 9.539840698242188 31.46015930175781 C 12.46740913391113 34.38771820068359 16.35980033874512 36 20.5 36 C 24.64019966125488 36 28.53258895874023 34.38771820068359 31.46015930175781 31.46015930175781 C 34.38771820068359 28.53258895874023 36 24.64019966125488 36 20.5 C 36 16.35980033874512 34.38771820068359 12.46740913391113 31.46015930175781 9.539840698242188 C 28.53258895874023 6.612281799316406 24.64019966125488 5 20.5 5 M 20.5 0 C 31.82184028625488 0 41 9.178159713745117 41 20.5 C 41 31.82184028625488 31.82184028625488 41 20.5 41 C 9.178159713745117 41 0 31.82184028625488 0 20.5 C 0 9.178159713745117 9.178159713745117 0 20.5 0 Z"/></g><rect class="b" width="22" height="26" transform="translate(1086 -21214)"/></g></svg>