    <svg
      xmlns="http://www.w3.org/2000/svg"
      width="30.037"
      height="32.731"
      viewBox="0 0 30.037 32.731"
    >
      <g data-name="icon previdencia" transform="translate(.601 .5)">
        <path
          fill="#6f4dbf"
          stroke="rgba(0,0,0,0)"
          strokeWidth="1"
          d="M.97 27.643a6.643 6.643 0 01-.242-6.463c1.513-2.5 4.795-2.5 6.374-2.5H7.952l5.769.025c1.165.005 3.494.944 3.83 3.085l5.4-5.4a2.91 2.91 0 012.087-.823 4.006 4.006 0 012.738 1.116c1.065 1.069 1.8 3.417.343 4.874l-7.639 7.641a8.728 8.728 0 01-6.168 2.521h0s-1.661-.029-3.2-.029c-.747 0-1.466.008-1.94.029-.182.008-.362.012-.539.012A8.428 8.428 0 01.97 27.643zm1.466-5.431c-1.331 2.2.209 7.524 6.187 7.524.148 0 .3 0 .451-.01.5-.024 1.249-.03 2.028-.03 1.562 0 3.24.03 3.24.03h.044a6.659 6.659 0 004.68-1.94l7.641-7.638c.471-.473.125-1.583-.345-2.055a2.034 2.034 0 00-1.326-.532.927.927 0 00-.675.239c-7.191 7.19-7.407 7.412-7.405 7.412a3.562 3.562 0 01-2.541 1.053H9.406a1.169 1.169 0 01-1.17-1.169 1.171 1.171 0 011.17-1.168h5.009a1.534 1.534 0 001.176-1.735c-.089-1.025-1.511-1.493-1.882-1.494l-5.768-.023c-.269 0-.55-.005-.84-.005-1.786 0-3.809.118-4.665 1.54zm9.825-7.605v-1.105H8.256a1 1 0 01-1-1 1 1 0 011-1h4.005V8.796h-1.877a3.248 3.248 0 01-3.127-3.348 3.249 3.249 0 013.127-3.351h1.877V1a1 1 0 011-1 1 1 0 011 1v1.106h3.07a1 1 0 011 1 1 1 0 01-1 1h-3.07v2.709h1.878a3.248 3.248 0 013.127 3.349 3.247 3.247 0 01-3.127 3.348h-1.878v1.105a1 1 0 01-1 1 1 1 0 01-1-1.011zm2-3.1h1.878a1.257 1.257 0 001.129-1.353 1.257 1.257 0 00-1.129-1.353h-1.878zm-5-6.057a1.259 1.259 0 001.131 1.355h1.877V4.096h-1.877a1.26 1.26 0 00-1.138 1.353z"
          data-name="icon previdencia"
        ></path>
      </g>
    </svg>